# xmcd CD database file
#
# Track frame offsets:
#	150
#	24163
#	45253
#	64108
#	74945
#	84773
#	102655
#	115980
#	127051
#	137215
#	152893
#	169242
#	189039
#	205968
#	218696
#
# Disc length: 3121 seconds
#
# Revision: 0
# Processed by: cddbd v1.5.2PL0 Copyright (c) Steve Scherf et al.
# Submitted via: CDex 1.77
#
DISCID=d60c2f0f
DTITLE=Butlers - Jazz Tunes
DYEAR=1900
DGENRE=Jazz
TTITLE0=01 - Take Five - The Dave Brubeck Quartet
TTITLE1=02 - What A Difference A Day Makes - Etta Jones
TTITLE2=03 - Summertime - The Chet Baker Quartet
TTITLE3=04 - Cry Me A River - Dinah Washington
TTITLE4=05 - You're Nobody 'Til Somebody Loves You - Dean Martin
TTITLE5=06 - I Get A Kick Out Of You - Ella Fitzgerald
TTITLE6=07 - Do It The Hard Way - Chet Baker
TTITLE7=08 - Come Dance With Me - Frank Sinatra
TTITLE8=09 - C'est Magnifique - Kay Starr
TTITLE9=10 - Diamonds Are A Girls Best Friend - Marylin Monroe
TTITLE10=11 - On The Street Where You Live - Dean Martin
TTITLE11=12 - 'Tis Autumn - The Kenny Clarke-Francy Boland Big Band and Carmen McRae
TTITLE12=13 - Carmen McRae - When I Fall In Love
TTITLE13=14 - As Time Goes By - Peggy Lee
TTITLE14=15 - Fly Me To The Moon (In Other Words) - Nat 'King' Cole and The George Shearing Quintet
EXTD=
EXTT0=
EXTT1=
EXTT2=
EXTT3=
EXTT4=
EXTT5=
EXTT6=
EXTT7=
EXTT8=
EXTT9=
EXTT10=
EXTT11=
EXTT12=
EXTT13=
EXTT14=
PLAYORDER=
